# xmcd
#
# Track frame offsets:
#	150
#	10531
#	27053
#	41250
#	62901
#	78513
#	98974
#	111797
#	127005
#	138918
#	154983
#	170481
#
# Disc length: 2586 seconds
#
# Revision: 1
# Processed by: cddbd v1.5.2PL0 Copyright (c) Steve Scherf et al.
# Submitted via: audiograbber 1.83.01
#
DISCID=930a180c
DTITLE=The Rolling Stones - Blue and Lonesome
DYEAR=2016
DGENRE=Blues
TTITLE0=Just Your Fool
TTITLE1=Commit A Crime
TTITLE2=Blue And Lonesome
TTITLE3=All For Your Love
TTITLE4=I Gotta Go
TTITLE5=Everybody Knows About My Good Thing
TTITLE6=Ride 'Em On Down
TTITLE7=Hate To See You Go
TTITLE8=Hoo Doo Blues
TTITLE9=Little Rain
TTITLE10=Just Like I Treat You
TTITLE11=I Can't Quit You Baby
EXTD=
EXTT0=
EXTT1=
EXTT2=
EXTT3=
EXTT4=
EXTT5=
EXTT6=
EXTT7=
EXTT8=
EXTT9=
EXTT10=
EXTT11=
PLAYORDER=
